<svg width="41" height="40" viewBox="0 0 41 40" fill="none" xmlns="http://www.w3.org/2000/svg">
<rect x="0.96875" width="40" height="40" rx="20" fill="white" fill-opacity="0.08"/>
<mask id="mask0_15054_2656" style="mask-type:luminance" maskUnits="userSpaceOnUse" x="24" y="18" width="7" height="2">
<path d="M25.1273 18.8618C25.0117 18.8618 24.9165 18.957 24.9165 19.0741C24.9165 19.1912 25.0117 19.2864 25.1273 19.2864H30.3432C30.4603 19.2864 30.5555 19.1912 30.5555 19.0741C30.5555 18.957 30.4603 18.8618 30.3432 18.8618H25.1273Z" fill="white"/>
</mask>
<g mask="url(#mask0_15054_2656)">
<path d="M30.5526 18.8618H24.915V19.2849H30.5526V18.8618Z" fill="url(#paint0_linear_15054_2656)"/>
</g>
<mask id="mask1_15054_2656" style="mask-type:luminance" maskUnits="userSpaceOnUse" x="24" y="20" width="7" height="1">
<path d="M25.1273 20.2688C25.0117 20.2688 24.9165 20.364 24.9165 20.4811C24.9165 20.5967 25.0117 20.6919 25.1273 20.6919H30.3432C30.4603 20.6919 30.5555 20.5967 30.5555 20.4811C30.5555 20.364 30.4603 20.2688 30.3432 20.2688H25.1273Z" fill="white"/>
</mask>
<g mask="url(#mask1_15054_2656)">
<path d="M30.5526 20.2688H24.915V20.6919H30.5526V20.2688Z" fill="url(#paint1_linear_15054_2656)"/>
</g>
<mask id="mask2_15054_2656" style="mask-type:luminance" maskUnits="userSpaceOnUse" x="24" y="21" width="7" height="2">
<path d="M25.1273 21.6772C25.0117 21.6772 24.9165 21.7724 24.9165 21.8895C24.9165 22.0066 25.0117 22.1018 25.1273 22.1018H30.3432C30.4603 22.1018 30.5555 22.0066 30.5555 21.8895C30.5555 21.7739 30.4603 21.6772 30.3432 21.6772H25.1273Z" fill="white"/>
</mask>
<g mask="url(#mask2_15054_2656)">
<path d="M30.5526 21.6772H24.915V22.1003H30.5526V21.6772Z" fill="url(#paint2_linear_15054_2656)"/>
</g>
<mask id="mask3_15054_2656" style="mask-type:luminance" maskUnits="userSpaceOnUse" x="24" y="23" width="7" height="1">
<path d="M25.1273 23.084C25.0117 23.084 24.9165 23.1791 24.9165 23.2963C24.9165 23.4134 25.0117 23.5085 25.1273 23.5085H30.3432C30.4603 23.5085 30.5555 23.4134 30.5555 23.2963C30.5555 23.1806 30.4603 23.084 30.3432 23.084H25.1273Z" fill="white"/>
</mask>
<g mask="url(#mask3_15054_2656)">
<path d="M30.5526 23.084H24.915V23.5071H30.5526V23.084Z" fill="url(#paint3_linear_15054_2656)"/>
</g>
<mask id="mask4_15054_2656" style="mask-type:luminance" maskUnits="userSpaceOnUse" x="24" y="24" width="7" height="1">
<path d="M25.1273 24.4907C25.0117 24.4907 24.9165 24.5859 24.9165 24.703C24.9165 24.8186 25.0117 24.9153 25.1273 24.9153H30.3432C30.4603 24.9153 30.5555 24.8201 30.5555 24.703C30.5555 24.5859 30.4603 24.4907 30.3432 24.4907H25.1273Z" fill="white"/>
</mask>
<g mask="url(#mask4_15054_2656)">
<path d="M30.5526 24.4907H24.915V24.9138H30.5526V24.4907Z" fill="url(#paint4_linear_15054_2656)"/>
</g>
<path d="M13.0032 13.4236H28.9715C31.3006 13.4236 33.1803 15.3398 33.1803 17.6689V21.9904C33.1803 26.6866 29.3478 30.5572 24.6135 30.5572H17.3246C12.6284 30.5572 8.75781 26.6866 8.75781 21.9904V17.6689C8.75781 15.3398 10.6741 13.4236 13.0032 13.4236Z" fill="white"/>
<path d="M13.0034 13.0107H28.9718C30.2498 13.0107 31.377 13.5363 32.2407 14.4015C33.0678 15.2286 33.5933 16.3924 33.5933 17.6704V21.9919C33.5933 24.4717 32.5789 26.6881 30.9627 28.3423C29.3465 29.9585 27.0921 30.973 24.6122 30.973H17.3234C14.8435 30.973 12.6272 29.9585 10.9729 28.3423C9.35678 26.6896 8.34229 24.4717 8.34229 21.9919V17.6689C8.34229 16.3909 8.86783 15.2271 9.733 14.4C10.5616 13.5363 11.7254 13.0107 13.0034 13.0107ZM28.9732 13.8364H13.0034C11.9508 13.8364 10.9744 14.2492 10.2981 14.9636C9.58368 15.6399 9.17086 16.6164 9.17086 17.6689V21.9904C9.17086 24.2448 10.0726 26.2738 11.5761 27.7392C13.0415 29.2426 15.0704 30.1444 17.3249 30.1444H24.6137C26.8681 30.1444 28.8971 29.2426 30.4005 27.7392C31.8659 26.2738 32.8058 24.2448 32.8058 21.9904V17.6689C32.8058 16.6164 32.3549 15.6399 31.6785 14.9636C30.9642 14.2507 30.0243 13.8364 28.9732 13.8364Z" fill="#262626"/>
<g opacity="0.4392">
<mask id="mask5_15054_2656" style="mask-type:luminance" maskUnits="userSpaceOnUse" x="13" y="16" width="16" height="3">
<path d="M28.033 16.2795H13.9048V18.7594H28.033V16.2795Z" fill="white"/>
</mask>
<g mask="url(#mask5_15054_2656)">
<path d="M24.3513 18.007H17.588C16.2353 18.007 15.0335 17.3306 14.281 16.2781H13.9048V16.3908C14.5431 17.7815 15.9718 18.7579 17.5865 18.7579H24.3498C26.0026 18.7579 27.3933 17.7815 28.0316 16.3908V16.2781H27.6553C26.9439 17.3306 25.7405 18.007 24.3513 18.007Z" fill="#262626"/>
</g>
</g>
<path d="M17.2498 29.6554C12.4409 29.6554 8.53223 25.7482 8.53223 20.9377V21.5394C8.53223 26.3484 12.4394 30.257 17.2498 30.257H24.6895C29.4984 30.257 33.4437 26.3498 33.4437 21.5394V20.9377C33.4437 25.7467 29.4984 29.6554 24.6895 29.6554H17.2498Z" fill="#00A551"/>
<path d="M17.174 9.40356H24.7644C28.897 9.40356 32.3548 12.447 32.993 16.3923C32.4675 14.6634 30.8513 13.4235 28.9731 13.4235H13.0033C11.1251 13.4235 9.50892 14.6634 8.94531 16.3923C9.62164 12.447 13.0413 9.40356 17.174 9.40356Z" fill="white"/>
<path d="M17.1738 9.02734H24.7642C26.9059 9.02734 28.8968 9.77833 30.4002 11.0944C31.9403 12.409 33.0309 14.2506 33.4057 16.3176C33.4437 16.5431 33.2929 16.7305 33.0675 16.7685C32.842 16.8066 32.6547 16.6939 32.6166 16.4684C32.3531 15.7174 31.8656 15.0411 31.2259 14.5902C30.5876 14.1013 29.7986 13.8392 28.9715 13.8392H13.0031C12.1394 13.8392 11.3503 14.1027 10.7487 14.5902C10.0723 15.0411 9.58338 15.7174 9.32134 16.5065C9.28327 16.7319 9.05783 16.8446 8.83239 16.77C8.64501 16.6953 8.53229 16.5065 8.56888 16.3191C8.90705 14.2521 9.9962 12.4119 11.5377 11.0959C13.0777 9.77833 15.0321 9.02734 17.1738 9.02734ZM24.7642 9.81639H17.1738C15.2194 9.81639 13.454 10.5308 12.0632 11.6946C11.3123 12.3329 10.7106 13.0853 10.2216 13.949L10.2597 13.911C11.0107 13.3474 11.9886 13.0092 13.0031 13.0092H28.9715C29.9859 13.0092 30.9258 13.3474 31.6768 13.911L31.7148 13.949C31.2639 13.0853 30.6257 12.3329 29.8732 11.6946C28.522 10.5308 26.7185 9.81639 24.7642 9.81639Z" fill="#262626"/>
<path d="M17.2866 9.40356H24.6516C23.9006 10.6435 22.5099 11.4706 20.9698 11.4706C19.4283 11.4691 18.0757 10.6435 17.2866 9.40356Z" fill="#00A551"/>
<path d="M17.2867 9.02734H24.6517C24.8771 9.02734 25.0645 9.17813 25.0645 9.40357C25.0645 9.51629 25.0264 9.59095 24.9898 9.66707C24.539 10.3053 23.9753 10.8689 23.261 11.2832C22.5846 11.6595 21.7956 11.8849 20.9685 11.8849C20.1414 11.8849 19.3523 11.6595 18.676 11.2832C17.9616 10.8704 17.398 10.3068 16.9471 9.63048C16.8344 9.4431 16.909 9.17959 17.0979 9.06687C17.1374 9.02734 17.2121 9.02734 17.2867 9.02734ZM23.8246 9.81639H18.1138C18.3773 10.1165 18.7155 10.38 19.0537 10.5674C19.6173 10.8675 20.2936 11.0563 20.9699 11.0563C21.6843 11.0563 22.3226 10.8689 22.8862 10.5674C23.2229 10.38 23.5611 10.1165 23.8246 9.81639Z" fill="#262626"/>
<path d="M13.5285 16.467H13.9048C14.543 17.8578 15.9718 18.8342 17.5865 18.8342H24.3498C26.0025 18.8342 27.3933 17.8578 28.0315 16.467H28.4078C29.9112 16.467 31.1511 17.707 31.1511 19.2104V22.0285C31.1511 25.0719 28.6713 27.5518 25.5897 27.5518H16.3466C13.3031 27.5518 10.7852 25.0719 10.7852 22.0285V19.2104C10.7866 17.707 12.0266 16.467 13.5285 16.467Z" fill="#262626"/>
<path d="M13.5288 16.0542H13.905C14.0924 16.0542 14.2432 16.1669 14.2812 16.3177C14.5813 16.956 15.0322 17.483 15.6339 17.8577C16.1975 18.234 16.8738 18.4594 17.5882 18.4594H24.3515C25.0659 18.4594 25.7422 18.234 26.3424 17.8577C26.906 17.4815 27.395 16.956 27.6951 16.3177C27.7331 16.1669 27.8825 16.0542 28.0332 16.0542H28.4095C29.2732 16.0542 30.0622 16.4304 30.6258 16.994C31.1894 17.5576 31.5657 18.3467 31.5657 19.2104V22.0284C31.5657 23.6446 30.8893 25.1466 29.8002 26.2372C28.7476 27.2897 27.2457 27.9661 25.5914 27.9661H16.3483C14.6955 27.9661 13.2301 27.2897 12.1395 26.2372C11.0504 25.148 10.4106 23.6446 10.4106 22.0284V19.2104C10.4106 18.3467 10.7488 17.5576 11.3124 16.994C11.3124 16.994 11.3505 16.994 11.3505 16.956C11.9141 16.3924 12.7031 16.0542 13.5288 16.0542ZM13.6415 16.8798H13.5288C12.8905 16.8798 12.3269 17.1434 11.9126 17.5562H11.8746C11.4617 17.969 11.1982 18.5707 11.1982 19.2089V22.027C11.1982 23.4177 11.7618 24.7323 12.7017 25.6341C13.6415 26.5739 14.918 27.1741 16.3468 27.1741H25.59C27.0173 27.1741 28.2953 26.5724 29.2351 25.6341C30.175 24.7323 30.7386 23.4177 30.7386 22.027V19.2104C30.7386 18.5721 30.4751 17.9705 30.0622 17.5576C29.6494 17.1448 29.0477 16.8813 28.4095 16.8813H28.2967C27.9205 17.5576 27.395 18.1212 26.7567 18.5341C26.0804 18.985 25.2533 19.2485 24.3515 19.2485H17.5882C16.7245 19.2485 15.8974 18.985 15.183 18.5341C14.5433 18.1198 14.0177 17.5562 13.6415 16.8798Z" fill="#262626"/>
<path d="M16.0088 27.6646C16.0088 27.4391 16.2342 27.2883 16.4216 27.2883C16.647 27.3264 16.8344 27.5138 16.7978 27.7392C16.7598 28.152 16.7232 28.5663 16.7598 28.9791C16.7978 29.392 16.8725 29.8063 16.9852 30.2191C17.0233 30.4445 16.9105 30.67 16.6851 30.708C16.4597 30.7827 16.2342 30.6334 16.1962 30.4079C16.0834 29.957 16.0088 29.5062 15.9707 29.0553C15.9341 28.6029 15.9341 28.1154 16.0088 27.6646Z" fill="#262626"/>
<path d="M25.2898 27.7392C25.2518 27.5138 25.4026 27.3264 25.628 27.2883C25.8534 27.2883 26.0408 27.4391 26.0789 27.6646C26.117 28.1154 26.1535 28.6044 26.117 29.0553C26.0789 29.5062 26.0042 29.957 25.8915 30.4079C25.8168 30.6334 25.5914 30.7842 25.4026 30.708C25.1771 30.67 25.0263 30.4445 25.1025 30.2191C25.2152 29.8063 25.2898 29.392 25.2898 28.9792C25.3279 28.5663 25.3279 28.152 25.2898 27.7392Z" fill="#262626"/>
<path d="M9.73406 25.8974C7.66702 25.183 6.16504 23.2302 6.16504 20.9377C6.16504 18.9087 7.33031 17.1432 8.98307 16.2415C8.83229 16.6923 8.75763 17.1813 8.75763 17.6688V21.9902C8.75763 23.4176 9.0958 24.7336 9.73406 25.8974Z" fill="white"/>
<path d="M9.54691 26.2736C8.45775 25.8974 7.47986 25.1464 6.80353 24.2065C6.16526 23.3048 5.75098 22.1395 5.75098 20.9376C5.75098 19.8485 6.05108 18.8706 6.57809 18.0069C7.10363 17.1051 7.89268 16.3907 8.83252 15.9032C9.0199 15.7905 9.24534 15.8652 9.35806 16.0906C9.39612 16.1653 9.39612 16.278 9.39612 16.3907C9.32146 16.5781 9.24534 16.8035 9.20874 17.029C9.17068 17.2163 9.17068 17.4418 9.17068 17.6672V21.9887C9.17068 22.665 9.24534 23.3033 9.39612 23.905C9.54691 24.5432 9.77235 25.1449 10.0725 25.7085C10.1852 25.934 10.1105 26.1594 9.88507 26.2721C9.77235 26.3116 9.65963 26.3116 9.54691 26.2736ZM7.47986 23.7557C7.85609 24.2812 8.34357 24.7321 8.90718 25.1083C8.79445 24.7701 8.68173 24.432 8.60707 24.0938C8.45629 23.4175 8.34357 22.7031 8.34357 21.9902V17.6687C8.34357 17.4813 8.38163 17.2925 8.38163 17.1432C7.93074 17.4813 7.55452 17.9322 7.25442 18.4211C6.84159 19.1355 6.57809 19.9992 6.57809 20.9391C6.57809 21.9902 6.91625 22.9666 7.47986 23.7557Z" fill="#262626"/>
<path d="M13.0034 13.0107H28.9718C30.2498 13.0107 31.377 13.5363 32.2407 14.4015C33.0678 15.2286 33.5933 16.3924 33.5933 17.6704V21.9919C33.5933 24.4717 32.5789 26.6881 30.9627 28.3423C29.3465 29.9585 27.0921 30.973 24.6122 30.973H17.3234C14.8435 30.973 12.6272 29.9585 10.9729 28.3423C9.35678 26.6896 8.34229 24.4717 8.34229 21.9919V17.6689C8.34229 16.3909 8.86783 15.2271 9.733 14.4C10.5616 13.5363 11.7254 13.0107 13.0034 13.0107ZM28.9732 13.8364H13.0034C11.9508 13.8364 10.9744 14.2492 10.2981 14.9636C9.58368 15.6399 9.17086 16.6164 9.17086 17.6689V21.9904C9.17086 24.2448 10.0726 26.2738 11.5761 27.7392C13.0415 29.2426 15.0704 30.1444 17.3249 30.1444H24.6137C26.8681 30.1444 28.8971 29.2426 30.4005 27.7392C31.8659 26.2738 32.8058 24.2448 32.8058 21.9904V17.6689C32.8058 16.6164 32.3549 15.6399 31.6785 14.9636C30.9642 14.2507 30.0243 13.8364 28.9732 13.8364Z" fill="#262626"/>
<g opacity="0.4392">
<mask id="mask6_15054_2656" style="mask-type:luminance" maskUnits="userSpaceOnUse" x="6" y="18" width="4" height="8">
<path d="M9.24662 18.9849H6.22363V25.7481H9.24662V18.9849Z" fill="white"/>
</mask>
<g mask="url(#mask6_15054_2656)">
<path d="M8.75788 21.314C8.71982 22.4412 8.87061 23.9065 9.24683 25.7481C6.57958 24.2828 5.67781 22.0664 6.54152 18.9849C6.91628 20.563 7.66727 21.352 8.75788 21.314Z" fill="#262626"/>
</g>
</g>
<path d="M9.24553 25.5974C9.20747 24.9592 9.17087 24.621 9.17087 24.621C7.29267 23.4938 6.46556 21.7649 6.691 19.4739C5.86389 22.4412 6.72906 24.4702 9.24553 25.5974Z" fill="#00A551"/>
<path d="M9.54691 26.2736C8.45775 25.8974 7.47986 25.1464 6.80353 24.2065C6.16526 23.3048 5.75098 22.1395 5.75098 20.9376C5.75098 19.8485 6.05108 18.8706 6.57809 18.0069C7.10363 17.1051 7.89268 16.3907 8.83252 15.9032C9.0199 15.7905 9.24534 15.8652 9.35806 16.0906C9.39612 16.1653 9.39612 16.278 9.39612 16.3907C9.32146 16.5781 9.24534 16.8035 9.20874 17.029C9.17068 17.2163 9.17068 17.4418 9.17068 17.6672V21.9887C9.17068 22.665 9.24534 23.3033 9.39612 23.905C9.54691 24.5432 9.77235 25.1449 10.0725 25.7085C10.1852 25.934 10.1105 26.1594 9.88507 26.2721C9.77235 26.3116 9.65963 26.3116 9.54691 26.2736ZM7.47986 23.7557C7.85609 24.2812 8.34357 24.7321 8.90718 25.1083C8.79445 24.7701 8.68173 24.432 8.60707 24.0938C8.45629 23.4175 8.34357 22.7031 8.34357 21.9902V17.6687C8.34357 17.4813 8.38163 17.2925 8.38163 17.1432C7.93074 17.4813 7.55452 17.9322 7.25442 18.4211C6.84159 19.1355 6.57809 19.9992 6.57809 20.9391C6.57809 21.9902 6.91625 22.9666 7.47986 23.7557Z" fill="#262626"/>
<path d="M32.2422 25.8608C34.3092 25.1464 35.7746 23.1936 35.7746 20.863C35.7746 18.834 34.6474 17.0685 32.9566 16.2034C33.1074 16.6543 33.182 17.1051 33.182 17.5941V21.9522C33.1806 23.3429 32.8424 24.6955 32.2422 25.8608Z" fill="white"/>
<path d="M33.0309 25.0337C33.5945 24.6956 34.0835 24.2447 34.4963 23.6811C35.0599 22.892 35.36 21.9156 35.36 20.863C35.36 19.9613 35.1346 19.0976 34.6837 18.3451C34.3836 17.8562 34.0074 17.4433 33.5565 17.0671C33.5945 17.2545 33.5945 17.4433 33.5945 17.5927V21.9507C33.5945 22.6651 33.5199 23.3781 33.331 24.0544C33.2564 24.3955 33.1436 24.7336 33.0309 25.0337ZM35.1346 24.17C34.4582 25.1099 33.5184 25.8228 32.3912 26.2371C32.2785 26.2751 32.1657 26.2751 32.053 26.2371C31.8656 26.1244 31.7895 25.8608 31.8656 25.6735C32.1657 25.1099 32.3912 24.5082 32.542 23.8699C32.6928 23.2317 32.8055 22.5919 32.8055 21.9537V17.5941C32.8055 17.3687 32.7674 17.1813 32.7308 16.9559C32.6928 16.7685 32.6562 16.543 32.58 16.3542C32.542 16.2415 32.542 16.1287 32.58 16.016C32.6928 15.8286 32.9563 15.7525 33.1436 15.8652C34.0454 16.3161 34.8345 17.0671 35.36 17.9323C35.8856 18.796 36.1871 19.8105 36.1871 20.863C36.1871 22.103 35.8109 23.2302 35.1346 24.17Z" fill="#262626"/>
<g opacity="0.4392">
<mask id="mask7_15054_2656" style="mask-type:luminance" maskUnits="userSpaceOnUse" x="32" y="18" width="4" height="8">
<path d="M35.7144 18.9468H32.6929V25.672H35.7144V18.9468Z" fill="white"/>
</mask>
<g mask="url(#mask7_15054_2656)">
<path d="M33.1804 21.2759C33.255 22.365 33.0676 23.8304 32.6914 25.672C35.3587 24.2447 36.2604 21.9903 35.3967 18.9468C35.022 20.5249 34.271 21.3139 33.1804 21.2759Z" fill="#262626"/>
</g>
</g>
<path d="M32.7295 25.5227C32.7676 24.8845 32.7676 24.5829 32.7676 24.5829C34.6458 23.4557 35.4729 21.7268 35.2855 19.4358C36.0745 22.4031 35.2474 24.4321 32.7295 25.5227Z" fill="#00A551"/>
<path d="M33.0309 25.0337C33.5945 24.6956 34.0835 24.2447 34.4963 23.6811C35.0599 22.892 35.36 21.9156 35.36 20.863C35.36 19.9613 35.1346 19.0976 34.6837 18.3451C34.3836 17.8562 34.0074 17.4433 33.5565 17.0671C33.5945 17.2545 33.5945 17.4433 33.5945 17.5927V21.9507C33.5945 22.6651 33.5199 23.3781 33.331 24.0544C33.2564 24.3955 33.1436 24.7336 33.0309 25.0337ZM35.1346 24.17C34.4582 25.1099 33.5184 25.8228 32.3912 26.2371C32.2785 26.2751 32.1657 26.2751 32.053 26.2371C31.8656 26.1244 31.7895 25.8608 31.8656 25.6735C32.1657 25.1099 32.3912 24.5082 32.542 23.8699C32.6928 23.2317 32.8055 22.5919 32.8055 21.9537V17.5941C32.8055 17.3687 32.7674 17.1813 32.7308 16.9559C32.6928 16.7685 32.6562 16.543 32.58 16.3542C32.542 16.2415 32.542 16.1287 32.58 16.016C32.6928 15.8286 32.9563 15.7525 33.1436 15.8652C34.0454 16.3161 34.8345 17.0671 35.36 17.9323C35.8856 18.796 36.1871 19.8105 36.1871 20.863C36.1871 22.103 35.8109 23.2302 35.1346 24.17Z" fill="#262626"/>
<path d="M20.6318 20.4124C20.6318 20.2616 20.7826 20.1123 20.9319 20.1123C21.1193 20.1123 21.232 20.2631 21.232 20.4124V24.545C21.232 24.6958 21.1193 24.8451 20.9319 24.8451C20.7812 24.8451 20.6318 24.6944 20.6318 24.545V20.4124Z" fill="#00A551"/>
<path d="M22.21 20.9756C22.21 20.8249 22.3607 20.6755 22.5101 20.6755C22.6974 20.6755 22.8102 20.8263 22.8102 20.9756V23.9811C22.8102 24.1684 22.6974 24.2812 22.5101 24.2812C22.3593 24.2812 22.21 24.1684 22.21 23.9811V20.9756Z" fill="#00A551"/>
<path d="M23.7881 20.5994C23.7881 20.4486 23.9389 20.2993 24.0882 20.2993C24.2756 20.2993 24.3883 20.4501 24.3883 20.5994V24.3573C24.3883 24.5447 24.2756 24.6574 24.0882 24.6574C23.9374 24.6574 23.7881 24.5447 23.7881 24.3573V20.5994Z" fill="#00A551"/>
<path d="M25.2534 21.7269C25.2534 21.5395 25.4042 21.4268 25.5535 21.4268C25.7409 21.4268 25.8536 21.5395 25.8536 21.7269V23.2669C25.8536 23.4177 25.7409 23.567 25.5535 23.567C25.4027 23.567 25.2534 23.4162 25.2534 23.2669V21.7269Z" fill="#00A551"/>
<path d="M19.1284 20.9756C19.1284 20.8249 19.2792 20.6755 19.4285 20.6755C19.6159 20.6755 19.7286 20.8263 19.7286 20.9756V23.9811C19.7286 24.1684 19.6159 24.2812 19.4285 24.2812C19.2777 24.2812 19.1284 24.1684 19.1284 23.9811V20.9756Z" fill="#00A551"/>
<path d="M17.5503 20.5994C17.5503 20.4486 17.7011 20.2993 17.8504 20.2993C18.0378 20.2993 18.1505 20.4501 18.1505 20.5994V24.3573C18.1505 24.5447 18.0378 24.6574 17.8504 24.6574C17.6996 24.6574 17.5503 24.5447 17.5503 24.3573V20.5994Z" fill="#00A551"/>
<path d="M16.085 21.7269C16.085 21.5395 16.2357 21.4268 16.3851 21.4268C16.5724 21.4268 16.6852 21.5395 16.6852 21.7269V23.2669C16.6852 23.4177 16.5724 23.567 16.3851 23.567C16.2343 23.567 16.085 23.4162 16.085 23.2669V21.7269Z" fill="#00A551"/>
<defs>
<linearGradient id="paint0_linear_15054_2656" x1="27.7386" y1="18.8613" x2="27.7386" y2="19.2847" gradientUnits="userSpaceOnUse">
<stop stop-color="#F1F4F7"/>
<stop offset="1" stop-color="#D8E2EB"/>
</linearGradient>
<linearGradient id="paint1_linear_15054_2656" x1="27.7386" y1="20.2689" x2="27.7386" y2="20.6921" gradientUnits="userSpaceOnUse">
<stop stop-color="#F1F4F7"/>
<stop offset="1" stop-color="#D8E2EB"/>
</linearGradient>
<linearGradient id="paint2_linear_15054_2656" x1="27.7386" y1="21.6763" x2="27.7386" y2="22.0997" gradientUnits="userSpaceOnUse">
<stop stop-color="#F1F4F7"/>
<stop offset="1" stop-color="#D8E2EB"/>
</linearGradient>
<linearGradient id="paint3_linear_15054_2656" x1="27.7495" y1="23.0819" x2="27.7495" y2="23.5054" gradientUnits="userSpaceOnUse">
<stop stop-color="#F1F4F7"/>
<stop offset="1" stop-color="#D8E2EB"/>
</linearGradient>
<linearGradient id="paint4_linear_15054_2656" x1="27.7495" y1="24.4892" x2="27.7495" y2="24.9126" gradientUnits="userSpaceOnUse">
<stop stop-color="#F1F4F7"/>
<stop offset="1" stop-color="#D8E2EB"/>
</linearGradient>
</defs>
</svg>
